<?xml version="1.0" standalone="no"?>
<!DOCTYPE svg PUBLIC "-//W3C//DTD SVG 20010904//EN"
 "http://www.w3.org/TR/2001/REC-SVG-20010904/DTD/svg10.dtd">
<svg version="1.0" xmlns="http://www.w3.org/2000/svg"
 width="626.000000pt" height="626.000000pt" viewBox="0 0 626.000000 626.000000"
 preserveAspectRatio="xMidYMid meet">

<g transform="translate(0.000000,626.000000) scale(0.100000,-0.100000)"
fill="#000000" stroke="none">
<path d="M1230 5554 c-33 -14 -60 -48 -60 -76 0 -25 28 -57 169 -196 226 -223
307 -352 391 -622 145 -465 189 -566 341 -771 65 -87 91 -156 64 -171 -11 -7
-22 -30 -39 -82 -5 -16 -11 -13 -39 22 -17 22 -86 87 -152 145 -116 100 -133
120 -155 180 -18 49 -91 32 -116 -28 -40 -96 17 -338 121 -517 54 -94 75 -159
56 -182 -21 -25 -112 -50 -181 -50 -78 0 -129 23 -184 84 -30 34 -37 37 -31
19 4 -13 22 -47 39 -74 41 -63 106 -100 204 -117 66 -11 78 -10 144 9 48 14
77 18 84 12 24 -20 53 -107 68 -208 16 -99 31 -146 58 -183 17 -24 -15 -90
-74 -149 l-47 -47 37 -6 c20 -3 56 -6 80 -6 23 0 42 -3 42 -7 -1 -33 -36 -146
-56 -180 -14 -24 -22 -43 -19 -43 15 0 93 52 120 80 16 16 32 30 36 30 20 0
-45 -139 -98 -213 l-35 -47 27 10 c43 16 67 31 128 76 31 24 57 41 57 39 0
-13 -46 -94 -78 -139 l-35 -48 44 22 c24 12 59 33 77 47 18 14 36 23 39 20 9
-10 -55 -199 -97 -285 -22 -46 -54 -103 -71 -128 l-31 -45 54 27 c124 62 263
187 310 277 12 23 23 36 25 29 12 -35 -28 -283 -63 -388 -12 -37 66 62 101
129 20 37 39 67 42 67 13 0 -14 -276 -43 -430 l-6 -35 36 49 c20 27 44 67 54
88 9 20 20 38 23 38 4 0 11 -82 15 -182 l9 -183 32 75 32 75 1 -155 c0 -87 4
-150 9 -145 4 6 32 68 62 139 l54 130 6 -45 c4 -24 12 -83 19 -131 7 -49 18
-109 24 -135 l13 -48 11 50 c6 28 14 67 17 88 11 58 22 44 23 -33 1 -59 10
-114 39 -238 10 -41 21 -23 28 46 10 97 18 98 31 2 12 -88 35 -182 40 -165 1
6 6 41 9 79 l7 69 18 -52 c31 -92 49 -92 80 0 l18 52 7 -69 c3 -38 8 -73 9
-79 5 -17 28 77 40 165 13 91 21 89 32 -9 3 -34 10 -61 14 -61 13 0 43 146 48
238 2 50 8 92 12 92 4 0 13 -30 20 -67 22 -116 25 -116 49 7 11 63 22 131 22
150 1 19 4 48 8 64 5 26 12 14 60 -100 29 -71 57 -133 63 -139 6 -6 8 46 6
143 -2 83 -2 152 0 152 1 0 18 -33 36 -72 l34 -73 2 90 c1 50 5 133 9 185 l6
95 32 -55 c17 -30 44 -71 59 -90 l26 -35 -6 35 c-28 147 -56 430 -43 430 3 0
22 -30 42 -67 36 -68 114 -167 100 -128 -33 96 -73 336 -63 381 3 15 9 9 26
-23 48 -93 182 -213 310 -277 l54 -27 -31 45 c-17 25 -49 82 -71 128 -42 86
-106 275 -97 285 3 3 21 -6 39 -20 18 -14 52 -34 76 -46 l43 -22 -50 73 c-27
40 -53 83 -56 96 -6 20 1 18 52 -21 61 -46 85 -61 127 -77 25 -9 25 -9 -8 38
-53 75 -116 212 -97 212 4 0 20 -14 36 -30 26 -27 105 -80 119 -80 2 0 -6 19
-19 43 -20 35 -54 148 -55 180 0 4 24 8 53 8 28 1 65 4 81 8 l29 6 -36 28
c-36 28 -97 118 -97 145 0 8 9 27 21 43 13 19 28 69 40 142 25 140 36 178 63
211 l21 27 45 -17 c53 -20 168 -23 226 -6 85 25 150 86 188 177 l16 38 -41
-47 c-58 -66 -109 -90 -189 -90 -69 0 -160 25 -181 50 -19 23 3 93 53 176 103
172 164 427 124 523 -25 60 -98 77 -116 28 -22 -60 -39 -80 -155 -180 -66 -58
-135 -123 -152 -145 -28 -35 -34 -38 -39 -22 -17 52 -28 75 -39 82 -26 14 -1
84 57 162 159 216 201 310 343 765 49 157 115 303 184 404 41 60 186 219 251
275 136 118 156 158 104 207 -23 22 -34 24 -112 24 -76 -1 -95 -4 -153 -32
-153 -71 -288 -183 -392 -325 -95 -130 -145 -224 -233 -438 -40 -98 -43 -103
-53 -79 -14 37 -70 99 -99 110 -42 16 -59 2 -88 -74 -84 -223 -201 -393 -346
-502 -47 -35 -63 -43 -74 -34 -8 7 -25 8 -41 4 -16 -4 -51 -8 -78 -10 -28 -2
-92 -19 -143 -39 -50 -20 -105 -36 -121 -36 -16 0 -71 16 -122 36 -51 20 -116
37 -144 39 -27 2 -62 6 -78 10 -16 4 -33 3 -41 -4 -11 -9 -27 -1 -74 34 -145
109 -262 279 -346 502 -29 76 -46 90 -88 74 -29 -11 -85 -73 -99 -110 -10 -24
-13 -19 -53 79 -145 356 -285 551 -493 687 -125 82 -181 104 -271 109 -42 2
-84 1 -92 -2z m145 -48 c28 -7 75 -26 105 -41 251 -127 415 -337 591 -756 92
-220 152 -323 235 -399 l38 -35 -38 45 c-20 25 -60 90 -88 145 -46 92 -50 104
-45 152 6 55 33 105 69 124 26 14 30 9 68 -86 68 -172 165 -310 315 -449 l97
-89 -5 -46 c-6 -62 -15 -98 -33 -133 -9 -17 -13 -32 -11 -35 16 -15 86 145 87
197 0 26 3 31 10 20 14 -22 12 -140 -4 -193 -8 -25 -32 -73 -54 -107 -53 -79
-37 -77 24 3 67 88 86 136 92 234 3 59 9 83 18 83 43 0 120 -26 180 -62 89
-52 122 -53 201 -4 55 34 144 66 184 66 13 0 17 -15 21 -83 6 -97 25 -145 92
-234 58 -79 80 -83 26 -6 -22 31 -47 79 -55 107 -17 56 -20 192 -5 201 6 4 10
-7 10 -27 1 -50 71 -210 87 -195 2 3 -2 18 -11 35 -18 35 -27 71 -33 133 l-5
46 97 89 c53 49 125 127 160 174 65 85 153 250 176 328 7 23 17 42 23 42 42 0
96 -84 96 -149 0 -48 -82 -215 -138 -283 l-36 -43 38 35 c83 76 143 179 235
399 181 432 348 642 605 762 93 44 164 56 212 38 56 -21 51 -43 -26 -106 -191
-158 -255 -230 -355 -398 -62 -105 -118 -254 -229 -606 -46 -147 -131 -316
-232 -459 -86 -123 -149 -186 -193 -192 l-29 -4 38 45 c48 58 136 190 171 256
14 28 47 88 72 135 61 112 112 247 143 376 31 128 27 156 -6 48 -38 -123 -126
-318 -140 -309 -6 3 -7 0 -5 -8 3 -7 -16 -47 -44 -89 -61 -93 -189 -268 -197
-268 -3 0 8 17 24 38 85 107 223 368 267 500 26 81 13 71 -23 -16 -60 -147
-180 -315 -365 -508 -42 -45 -96 -94 -118 -110 -40 -28 -42 -28 -71 -11 -49
28 -44 12 7 -23 84 -58 154 -84 225 -84 36 0 83 3 105 7 l40 8 -37 -36 -38
-35 28 0 c15 0 42 9 59 20 l33 20 6 -25 c9 -36 -3 -87 -42 -187 -19 -48 -34
-97 -34 -108 0 -40 -20 -19 -21 23 l-1 42 -9 -49 c-4 -27 -13 -54 -19 -60 -8
-8 -9 0 -5 29 9 51 -8 116 -40 153 -13 16 -22 32 -18 36 15 14 43 4 67 -25
l26 -31 0 40 c0 59 -25 83 -90 90 l-53 5 34 18 34 19 -30 -6 c-107 -21 -172
-68 -288 -207 -132 -158 -224 -209 -309 -174 -44 19 -70 63 -71 123 0 24 -4
41 -8 38 -16 -9 -31 -78 -26 -115 6 -44 -5 -43 -29 3 -11 21 -14 45 -11 72 l6
41 -25 -28 -24 -28 -24 28 -25 28 6 -41 c3 -27 0 -51 -11 -72 -24 -47 -34 -46
-29 1 4 28 -1 56 -13 82 l-18 40 -5 -55 c-8 -72 -30 -106 -81 -121 -84 -25
-175 29 -296 177 -98 119 -158 168 -243 194 -67 21 -100 19 -40 -2 l34 -12
-55 -7 c-66 -9 -90 -33 -90 -91 l0 -40 26 31 c24 29 52 39 67 25 4 -4 -5 -20
-18 -36 -32 -37 -49 -102 -40 -153 9 -56 -13 -33 -24 26 l-9 44 -1 -37 c-1
-39 -21 -55 -21 -18 0 11 -15 60 -34 108 -39 100 -51 151 -42 187 l6 25 33
-20 c17 -11 44 -20 59 -20 l28 0 -38 35 -37 36 40 -8 c22 -4 69 -7 105 -7 71
0 141 26 225 84 51 35 56 51 7 23 -29 -17 -31 -17 -71 12 -53 36 -198 188
-284 296 -86 108 -151 213 -199 319 -41 93 -49 95 -19 7 49 -142 178 -382 263
-489 16 -21 27 -38 24 -38 -8 0 -128 162 -190 257 -29 43 -45 77 -40 84 4 7 3
10 -4 5 -14 -9 -94 158 -143 299 -44 129 -49 121 -14 -22 31 -128 82 -262 142
-373 26 -47 62 -114 81 -150 34 -65 164 -254 182 -265 20 -12 9 -22 -17 -17
-66 12 -248 253 -342 453 -27 57 -66 158 -86 224 -78 249 -154 462 -185 520
-96 176 -215 318 -380 450 -87 70 -96 89 -48 110 42 18 70 18 133 1z m393
-1639 c15 -16 71 -65 124 -109 54 -44 110 -100 128 -127 39 -62 72 -160 68
-202 -3 -30 -8 -35 -47 -46 -50 -14 -66 -5 -55 32 12 38 16 96 9 133 -5 31
-27 57 -126 152 -100 97 -124 126 -144 175 l-25 60 0 -44 c0 -58 55 -170 116
-236 48 -51 102 -151 89 -163 -11 -10 -48 43 -67 96 -30 84 -21 2 13 -129 19
-68 29 -125 25 -136 -6 -14 -11 -9 -25 27 -9 25 -33 72 -52 105 -92 156 -150
366 -129 461 13 55 31 60 52 16 10 -20 31 -49 46 -65z m2806 87 c23 -22 21
-142 -4 -240 -12 -47 -50 -139 -95 -229 -41 -82 -75 -156 -75 -163 0 -7 -4
-10 -10 -7 -15 9 -12 35 16 131 14 49 28 112 30 139 l5 50 -25 -59 c-26 -61
-51 -95 -62 -84 -10 10 41 110 76 148 83 92 130 182 130 250 l0 45 -25 -60
c-20 -49 -44 -78 -144 -175 -100 -96 -121 -121 -127 -153 -6 -38 -2 -108 10
-137 12 -30 -7 -40 -49 -29 -22 6 -43 16 -47 23 -13 19 -9 61 12 121 30 88 73
146 158 216 126 104 180 159 192 195 13 39 13 39 34 18z m-2081 -445 c28 -15
248 -226 264 -253 48 -81 -45 -176 -155 -160 -61 8 -108 31 -166 80 -66 55
-96 106 -106 176 -10 69 7 128 43 153 25 18 90 20 120 4z m1389 0 c11 -6 28
-30 39 -53 37 -85 -5 -208 -98 -282 -68 -55 -122 -77 -188 -78 -90 -1 -145 46
-145 125 0 27 17 47 126 153 70 66 136 126 148 133 26 15 91 16 118 2z m-1697
-178 c42 -19 104 -81 128 -128 8 -15 27 -68 42 -118 34 -113 72 -189 126 -251
48 -56 73 -73 109 -74 41 -1 1 -20 -42 -20 -98 0 -178 81 -213 215 -38 143
-104 258 -167 291 -30 16 -120 21 -160 9 -13 -4 -72 -30 -133 -58 -101 -47
-116 -51 -185 -52 -61 0 -86 5 -134 28 -32 15 -57 30 -53 33 3 3 20 -3 39 -13
24 -13 53 -17 108 -17 93 2 166 28 252 91 103 76 206 100 283 64z m2052 1 c32
-10 86 -39 121 -65 116 -85 245 -115 341 -78 75 28 78 18 5 -16 -48 -23 -73
-28 -134 -28 -70 1 -83 4 -190 55 -96 46 -126 55 -183 58 -80 5 -116 -8 -157
-55 -42 -48 -73 -112 -109 -230 -32 -104 -69 -166 -122 -206 -29 -21 -107 -34
-136 -22 -14 5 -11 9 20 20 77 26 163 156 212 320 15 50 34 103 42 118 24 47
86 109 128 128 51 23 88 24 162 1z m-1056 -92 c23 -10 60 -34 84 -52 l43 -33
-47 -51 c-25 -27 -58 -75 -73 -106 -31 -62 -53 -181 -45 -240 4 -32 2 -38 -13
-38 -15 0 -17 6 -13 38 8 57 -14 177 -43 238 -14 30 -47 78 -74 107 l-49 54
32 24 c43 32 129 79 145 79 7 0 31 -9 53 -20z m-1102 -32 c0 -7 -6 -28 -13
-47 l-12 -34 -15 24 c-21 32 -29 56 -22 63 12 11 63 6 62 -6z m2165 4 c6 -10
-24 -72 -34 -72 -8 0 -30 54 -30 71 0 11 57 12 64 1z m-2265 -77 c33 -38 42
-85 16 -85 -8 0 -23 17 -34 38 -11 21 -27 44 -35 51 -21 18 -20 31 3 31 10 0
33 -16 50 -35z m2371 26 c0 -5 -7 -14 -16 -22 -8 -7 -24 -30 -35 -51 -22 -43
-49 -51 -49 -13 0 30 55 95 81 95 10 0 19 -4 19 -9z m-2128 -28 c9 -16 31 -77
48 -138 37 -126 58 -170 101 -220 39 -44 23 -45 -59 -4 -139 69 -200 215 -142
339 13 28 26 50 30 50 3 0 13 -12 22 -27z m221 -27 c27 -20 69 -41 93 -47 24
-6 47 -16 50 -21 8 -12 -63 1 -98 18 -38 19 -47 17 -18 -3 14 -10 47 -25 75
-35 54 -18 71 -38 33 -39 l-23 0 23 -10 c13 -5 20 -13 17 -19 -3 -6 -12 -37
-19 -71 l-12 -60 -26 20 c-35 28 -85 107 -118 189 -28 68 -48 146 -33 126 4
-6 30 -27 56 -48z m1413 -34 c-31 -93 -83 -185 -128 -226 l-32 -29 -12 61 c-7
34 -16 66 -19 72 -3 6 4 14 17 19 23 10 23 10 1 10 -40 2 -34 20 9 32 48 12
122 48 116 55 -3 2 -20 -2 -39 -10 -19 -7 -49 -17 -68 -21 -50 -11 -30 10 23
24 41 10 136 72 145 93 1 5 5 7 8 4 3 -2 -7 -40 -21 -84z m235 35 c59 -115 -6
-268 -143 -337 -82 -40 -98 -39 -59 5 43 49 64 95 95 205 31 109 64 183 77
174 5 -3 19 -24 30 -47z m-1102 -56 c50 -75 70 -127 77 -210 8 -80 1 -109 -20
-92 -8 7 -15 40 -18 80 -6 79 -42 154 -95 201 -36 32 -39 41 -23 70 15 28 36
15 79 -49z m371 22 c0 -8 -15 -27 -33 -43 -47 -41 -86 -118 -96 -191 -5 -35
-7 -67 -5 -70 2 -4 -3 -12 -11 -19 -40 -33 -26 151 18 242 14 29 42 71 62 93
35 38 38 39 51 20 8 -10 14 -25 14 -32z m-436 -96 c13 -17 30 -46 36 -62 16
-40 29 -135 19 -135 -4 0 -30 5 -57 11 -46 9 -50 12 -55 46 -13 75 -67 95
-119 42 -28 -28 -30 -34 -25 -80 6 -48 6 -49 -21 -49 -39 0 -52 17 -52 66 0
54 14 92 47 126 59 61 131 55 199 -18 40 -42 43 -31 9 36 -29 57 -18 66 19 17z
m431 -17 c-34 -67 -31 -78 9 -36 46 49 98 70 139 56 69 -23 107 -82 107 -165
0 -40 -3 -47 -26 -55 -48 -19 -54 -14 -47 38 5 42 2 52 -22 80 -47 56 -111 33
-122 -44 -4 -32 -9 -40 -27 -41 -11 -1 -35 -5 -52 -8 -42 -7 -47 9 -28 81 16
63 17 66 51 112 36 48 47 39 18 -18z m-1295 16 c0 -12 18 -60 40 -105 43 -89
45 -121 7 -121 -49 1 -82 51 -102 154 -8 43 -15 81 -15 85 0 4 16 7 35 8 30 1
35 -2 35 -21z m2210 14 c0 -8 -19 -118 -25 -147 -8 -35 -64 -93 -90 -93 -41 0
-40 33 4 121 23 45 41 92 41 105 0 19 5 22 35 21 19 -1 35 -4 35 -7z m-1929
-290 c8 0 20 -4 28 -9 10 -7 5 -18 -25 -49 -20 -22 -39 -46 -41 -54 -1 -7 -19
-61 -38 -120 -32 -96 -42 -113 -93 -166 -31 -32 -68 -65 -81 -72 l-24 -12 21
29 c31 43 62 128 78 211 22 115 18 125 -22 52 -19 -36 -46 -78 -60 -95 -25
-29 -26 -29 -20 -5 4 14 12 56 17 94 17 113 44 173 95 209 24 17 44 35 44 39
0 4 24 -5 53 -22 30 -16 60 -30 68 -30z m591 45 c21 -4 64 -17 97 -31 76 -30
122 -30 205 1 36 13 80 27 98 30 18 3 41 8 51 11 30 9 18 -3 -33 -35 -27 -17
-50 -33 -50 -36 0 -4 4 -4 9 -1 22 14 172 36 241 36 l75 0 -40 -21 c-60 -32
-64 -39 -19 -39 48 0 182 -41 229 -70 46 -29 45 -35 -2 -12 -21 11 -60 23 -88
26 -27 4 -61 10 -75 13 l-25 5 25 -18 c49 -35 95 -78 92 -87 -1 -5 1 -6 6 -3
10 6 58 -43 92 -94 l23 -35 -44 40 c-58 54 -115 92 -224 150 l-90 48 59 -54
c51 -46 116 -130 116 -149 0 -3 -23 15 -52 42 -29 26 -55 48 -59 48 -4 0 -26
16 -50 35 -63 53 -91 65 -49 21 l34 -36 -51 24 c-28 14 -63 28 -77 32 -14 3
-30 12 -37 20 -6 8 -16 14 -22 14 -6 0 0 -12 14 -26 l24 -27 -30 15 c-16 9
-40 18 -51 22 -19 6 -21 3 -16 -19 l4 -25 -43 25 c-24 14 -55 25 -69 25 -14 0
-45 -11 -69 -25 l-43 -25 4 25 c5 22 3 25 -16 19 -11 -4 -34 -13 -51 -22 l-30
-15 24 27 c14 14 20 26 14 26 -6 0 -16 -6 -22 -14 -7 -8 -23 -17 -37 -20 -14
-4 -49 -18 -77 -32 l-51 -24 34 36 c42 44 14 32 -49 -21 -24 -19 -46 -35 -50
-35 -4 0 -30 -22 -59 -48 -29 -27 -52 -45 -52 -41 0 17 68 104 79 101 7 -1 10
2 6 7 -3 6 4 19 17 30 13 11 34 29 48 41 30 26 -136 -60 -200 -104 -25 -17
-65 -48 -89 -71 l-44 -40 23 35 c35 53 72 90 83 83 6 -3 7 -2 4 4 -6 9 43 55
102 95 31 22 32 22 -64 3 -43 -8 -93 -24 -112 -35 -19 -11 -31 -16 -28 -10 23
38 191 100 269 100 45 0 41 7 -19 39 l-40 21 75 0 c72 0 166 -13 223 -30 40
-12 33 -4 -23 31 -51 32 -63 45 -32 35 9 -3 34 -8 54 -11z m1160 -38 c43 -31
71 -97 87 -203 5 -38 13 -80 17 -94 7 -23 5 -22 -21 8 -15 18 -43 61 -61 95
-38 70 -42 59 -20 -55 16 -84 47 -168 78 -211 13 -18 16 -27 7 -22 -81 48
-152 135 -174 213 -32 114 -59 175 -93 209 -35 35 -33 52 8 53 8 0 37 13 65
29 37 21 52 26 60 17 5 -7 27 -24 47 -39z m-2019 2 c12 -7 23 -13 25 -14 2 -1
-8 -28 -22 -58 -22 -50 -28 -57 -61 -63 -20 -3 -38 -4 -41 -1 -3 3 6 22 20 44
14 21 30 53 37 71 12 36 12 36 42 21z m2161 -30 c7 -20 23 -51 35 -68 28 -39
23 -46 -24 -37 -33 6 -39 13 -61 63 -14 30 -24 57 -22 58 14 11 45 24 52 22 4
-2 14 -19 20 -38z m-1875 -139 c-18 -22 -34 -38 -37 -36 -7 7 16 68 40 106
l23 35 3 -32 c2 -25 -5 -42 -29 -73z m1557 36 c33 -72 30 -86 -11 -40 -24 27
-34 49 -35 72 0 44 16 33 46 -32z m-806 -33 c0 -45 -22 -153 -30 -148 -4 2
-11 37 -14 76 -6 59 -5 74 10 90 21 23 34 16 34 -18z m85 -68 c-4 -38 -11 -74
-15 -78 -4 -5 -13 20 -19 55 -19 111 -13 142 21 111 17 -15 19 -26 13 -88z
m-188 43 c12 -13 12 -27 4 -74 -6 -32 -11 -59 -11 -61 0 -2 -4 -3 -8 -3 -28 0
-45 143 -20 168 10 10 14 10 17 0 2 -7 10 -20 18 -30z m293 -34 c0 -81 -32
-137 -44 -76 -17 87 -17 98 -2 111 9 8 16 20 16 28 0 13 3 13 15 3 10 -8 15
-31 15 -66z m-406 44 c-7 -23 -6 -23 15 -4 25 23 27 16 5 -27 -21 -41 -62 -85
-96 -103 -31 -16 -34 -11 -13 26 8 14 14 37 15 53 0 17 5 27 15 27 8 0 15 4
15 9 0 13 29 41 41 41 6 0 7 -10 3 -22z m500 6 c9 -8 16 -20 16 -25 0 -5 7 -9
15 -9 10 0 15 -10 15 -27 1 -16 7 -39 15 -53 21 -37 18 -42 -12 -26 -35 18
-76 62 -97 103 -22 43 -20 50 5 27 21 -19 22 -19 15 4 -9 26 5 29 28 6z m-956
-31 c7 -12 2 -29 -20 -62 -29 -47 -58 -128 -58 -165 0 -14 8 -7 28 25 16 24
47 58 69 76 l40 32 22 -39 c11 -21 21 -44 21 -52 0 -7 9 -30 20 -51 60 -112
118 -322 129 -471 8 -105 23 -133 63 -120 12 4 25 -3 38 -18 15 -19 22 -21 37
-12 14 9 21 8 30 -5 10 -14 15 -14 33 -3 12 7 23 12 23 10 23 -47 38 -56 60
-33 20 20 24 19 30 -5 8 -30 34 -24 71 15 42 45 70 45 112 0 37 -39 63 -45 71
-15 6 24 10 25 30 5 22 -23 37 -14 60 33 0 2 11 -3 23 -10 18 -11 23 -11 33 3
9 13 16 14 30 5 15 -9 22 -7 37 12 13 15 26 22 38 18 40 -13 55 15 63 120 10
144 69 360 129 471 11 21 20 44 20 51 0 8 10 31 21 52 l22 39 40 -32 c22 -18
53 -52 69 -76 15 -25 28 -38 28 -29 0 32 -40 144 -64 179 -21 31 -23 39 -12
54 13 18 15 17 57 -7 64 -38 74 -53 114 -168 20 -58 43 -116 52 -130 8 -14 -8
-2 -36 27 -28 28 -51 46 -51 39 0 -72 83 -379 112 -413 7 -9 7 -13 0 -13 -17
0 -137 125 -187 194 -25 35 -57 89 -71 120 -14 31 -26 56 -27 56 -6 0 1 -338
7 -358 4 -12 5 -22 2 -22 -2 0 -19 41 -37 92 l-33 92 -14 -90 c-8 -56 -12
-133 -8 -209 l5 -120 -20 60 c-10 33 -19 66 -19 73 0 7 -4 11 -8 8 -5 -3 -17
-85 -27 -182 l-19 -177 -28 63 c-16 35 -27 69 -24 75 2 6 -1 12 -7 12 -9 0
-11 -46 -10 -166 l2 -166 -18 50 c-10 28 -35 83 -55 122 -20 40 -36 79 -36 87
0 7 -6 27 -12 43 -11 26 -13 10 -15 -121 -1 -104 -7 -164 -17 -191 -10 -29
-15 -34 -15 -18 -1 13 -13 53 -28 90 l-28 68 -6 -125 c-4 -69 -11 -145 -16
-170 l-9 -45 -12 60 c-7 33 -24 87 -37 120 l-25 60 6 -68 c4 -37 3 -107 -1
-155 l-8 -87 -15 50 c-7 28 -25 82 -38 120 -23 68 -23 69 -16 20 12 -82 8
-237 -7 -270 l-13 -30 -15 50 c-15 48 -14 204 1 275 8 33 -32 -79 -54 -155
l-17 -60 -8 89 c-4 48 -4 118 -1 154 4 37 5 64 2 62 -9 -10 -54 -148 -62 -191
l-8 -44 -9 45 c-5 25 -12 101 -16 170 l-6 125 -27 -68 c-16 -37 -28 -75 -28
-84 0 -12 -3 -14 -11 -6 -14 14 -32 223 -25 301 3 34 4 62 2 62 -2 0 -13 -32
-26 -71 -12 -40 -31 -87 -43 -107 -11 -19 -31 -62 -44 -96 l-23 -61 3 167 c1
92 -1 164 -4 160 -3 -4 -19 -38 -35 -77 l-29 -69 -20 176 c-11 97 -23 180 -27
184 -5 4 -8 -1 -9 -12 0 -10 -9 -44 -19 -74 l-19 -55 5 115 c3 70 0 152 -8
210 l-14 95 -28 -80 c-15 -44 -33 -84 -38 -90 -8 -7 -9 -6 -3 3 4 7 8 92 9
187 l2 174 -37 -69 c-57 -109 -181 -259 -241 -291 -19 -10 -19 -9 -3 21 38 73
105 327 105 396 0 7 -23 -11 -51 -39 -28 -29 -44 -41 -36 -27 9 14 32 72 52
129 41 119 44 124 104 163 52 33 57 33 69 11z m251 -190 c35 -53 39 -68 14
-59 -9 4 -36 10 -60 13 -37 5 -43 9 -43 29 0 24 31 64 49 64 5 0 23 -21 40
-47z m957 23 c26 -40 15 -68 -26 -71 -19 -1 -45 -5 -57 -9 -30 -10 -29 1 7 57
33 53 52 58 76 23z m-809 -195 c58 -59 139 -205 128 -233 -9 -23 -40 -28 -65
-11 -24 17 -59 87 -60 118 0 32 -54 137 -88 174 -18 18 -32 35 -32 38 0 12 70
-39 117 -86z m669 43 c-40 -43 -86 -133 -86 -167 -1 -35 -36 -104 -63 -121
-27 -18 -52 -13 -61 11 -8 20 43 131 90 194 32 45 142 135 151 125 2 -2 -12
-21 -31 -42z m-808 -11 c48 -39 74 -83 95 -166 41 -158 135 -230 272 -211 34
5 89 5 128 0 82 -11 132 2 181 44 39 34 79 111 101 191 8 30 25 71 37 89 22
33 107 105 114 97 2 -2 -7 -31 -20 -65 -27 -69 -71 -240 -81 -317 -10 -72 -14
-85 -33 -85 -8 0 -26 -10 -39 -22 -18 -17 -26 -19 -35 -10 -15 15 -55 16 -63
1 -4 -6 -13 -8 -20 -5 -7 2 -21 -2 -32 -9 -10 -8 -28 -11 -40 -8 -17 4 -23 1
-23 -11 0 -19 -7 -20 -40 -1 -14 8 -45 14 -70 14 -25 0 -56 -6 -70 -14 -33
-19 -40 -18 -40 1 0 12 -6 15 -24 10 -15 -4 -28 0 -36 10 -7 8 -20 12 -28 9
-8 -3 -22 1 -31 9 -15 14 -20 14 -46 0 -26 -13 -30 -13 -50 6 -12 11 -29 20
-37 20 -19 0 -23 12 -33 85 -13 99 -59 266 -101 369 -9 24 2 18 64 -31z m389
10 c13 -15 26 -43 29 -60 3 -18 10 -33 14 -33 4 0 11 15 14 33 3 17 17 46 30
62 21 26 31 30 71 30 40 0 51 -5 76 -33 16 -18 29 -38 29 -46 0 -7 -16 -43
-35 -80 -32 -62 -36 -66 -44 -44 -5 13 -17 30 -26 38 -15 12 -19 12 -30 -3
-12 -16 -14 -16 -28 5 l-16 23 -21 -24 -21 -24 -15 21 c-20 29 -30 28 -48 -5
-10 -18 -15 -22 -16 -12 -1 41 -47 23 -63 -24 -5 -14 -15 -3 -42 49 -19 37
-35 72 -35 79 0 18 40 65 64 76 36 15 89 2 113 -28z m26 -229 c2 -47 -1 -59
-14 -62 -22 -4 -27 22 -16 87 11 68 27 55 30 -25z m66 -17 c1 -41 -2 -48 -16
-45 -15 3 -18 13 -17 56 1 28 5 60 9 69 7 16 9 15 15 -7 5 -14 8 -47 9 -73z
m-132 8 c6 -60 -7 -85 -34 -63 -16 13 -16 35 -1 93 15 56 27 45 35 -30z m212
-26 c1 -31 -19 -52 -38 -39 -10 6 -13 23 -8 64 8 77 19 90 33 41 7 -22 13 -52
13 -66z"/>
<path d="M2942 3978 c4 -28 42 -37 52 -13 9 24 -1 35 -30 35 -21 0 -25 -4 -22
-22z"/>
<path d="M3266 3991 c-4 -5 -3 -17 0 -26 10 -24 48 -15 52 13 3 18 -1 22 -22
22 -14 0 -27 -4 -30 -9z"/>
<path d="M2917 3903 c-11 -10 -8 -41 4 -49 6 -3 18 1 27 9 13 13 13 19 2 31
-14 17 -23 20 -33 9z"/>
<path d="M3312 3898 c-17 -17 -15 -35 5 -42 21 -8 36 6 31 30 -4 22 -20 28
-36 12z"/>
<path d="M2876 3781 c-10 -16 6 -42 23 -39 9 2 17 13 19 26 3 16 -2 22 -17 22
-11 0 -22 -4 -25 -9z"/>
<path d="M3337 3776 c-6 -15 11 -36 29 -36 14 0 27 28 18 41 -8 14 -41 11 -47
-5z"/>
<path d="M2530 3675 c-30 -13 -48 -24 -40 -24 18 -1 100 36 100 44 0 3 -1 5
-2 4 -2 0 -28 -11 -58 -24z"/>
<path d="M2710 3691 c-11 -8 -4 -11 29 -11 61 0 112 -27 201 -106 96 -85 122
-98 190 -98 68 1 96 15 190 98 88 78 140 106 201 107 40 0 42 1 19 10 -45 19
-141 6 -190 -25 -25 -15 -69 -43 -99 -62 -92 -58 -150 -58 -242 0 -148 94
-141 91 -214 94 -38 1 -77 -2 -85 -7z"/>
<path d="M3675 3690 c6 -10 94 -44 100 -39 2 3 -21 14 -51 26 -30 12 -52 17
-49 13z"/>
<path d="M2659 3472 c20 -38 124 -136 165 -156 25 -12 49 -16 69 -12 37 7 77
42 77 67 0 32 -21 32 -50 0 -51 -55 -101 -41 -203 57 -38 37 -64 57 -58 44z"/>
<path d="M3560 3444 c-107 -110 -167 -130 -220 -73 -29 32 -50 32 -50 0 0 -25
40 -60 77 -67 44 -9 96 19 164 87 49 49 88 99 76 99 -1 0 -23 -21 -47 -46z"/>
<path d="M2923 3464 c-8 -21 13 -42 28 -27 13 13 5 43 -11 43 -6 0 -13 -7 -17
-16z"/>
<path d="M3303 3464 c-8 -21 13 -42 28 -27 13 13 5 43 -11 43 -6 0 -13 -7 -17
-16z"/>
<path d="M2434 3388 c-4 -6 6 -22 25 -37 18 -15 31 -35 31 -48 0 -32 44 -59
73 -46 18 9 29 5 60 -20 21 -16 40 -27 43 -24 3 3 -11 17 -30 32 -26 19 -36
35 -36 54 0 43 -22 65 -58 59 -24 -3 -37 1 -54 19 -24 25 -43 29 -54 11z"/>
<path d="M3775 3380 c-12 -13 -31 -20 -56 -20 -42 0 -59 -19 -59 -63 0 -16
-12 -34 -36 -52 -19 -15 -33 -29 -30 -32 3 -3 22 8 43 24 31 25 42 29 60 20
29 -13 73 14 73 46 0 13 13 33 31 48 19 15 29 31 25 37 -11 18 -31 14 -51 -8z"/>
<path d="M2306 2315 c-9 -26 -7 -32 5 -12 6 10 9 21 6 23 -2 3 -7 -2 -11 -11z"/>
<path d="M2946 1499 c-10 -100 -9 -109 16 -109 12 0 30 8 41 18 19 17 19 16
12 -25 -9 -58 0 -86 26 -73 24 14 46 47 54 85 l7 30 -21 -32 c-30 -48 -41 -41
-41 25 0 31 -3 68 -7 81 -6 22 -7 20 -22 -19 -24 -64 -41 -63 -41 2 0 79 -16
91 -24 17z"/>
<path d="M3297 1547 c-4 -10 -7 -41 -7 -69 0 -61 -18 -61 -41 2 -15 39 -16 41
-22 19 -4 -13 -7 -50 -7 -81 0 -66 -11 -73 -40 -25 -24 38 -26 23 -4 -31 17
-45 58 -71 69 -45 3 9 3 37 -1 62 -7 45 -6 46 13 29 23 -21 59 -24 65 -5 7 22
-17 163 -25 144z"/>
<path d="M3181 1104 c0 -11 3 -14 6 -6 3 7 2 16 -1 19 -3 4 -6 -2 -5 -13z"/>
<path d="M2763 1998 c2 -7 16 -52 30 -99 26 -84 55 -128 76 -114 17 10 13 20
-17 53 -15 16 -41 62 -56 101 -15 39 -30 71 -33 71 -3 0 -3 -6 0 -12z"/>
<path d="M3464 1939 c-15 -39 -41 -85 -56 -102 -27 -28 -31 -57 -10 -57 21 0
45 44 72 131 16 51 28 95 26 97 -2 2 -16 -29 -32 -69z"/>
<path d="M3065 1778 c-16 -6 -39 -17 -50 -25 -19 -14 -19 -15 5 -7 36 10 170
12 204 3 42 -12 43 -4 1 15 -45 22 -122 29 -160 14z"/>
</g>
</svg>
